<svg width="2342" height="4684" xmlns="http://www.w3.org/2000/svg" xmlns:xlink="http://www.w3.org/1999/xlink" xml:space="preserve" overflow="hidden"><g><g><rect x="0" y="0" width="2339" height="4677" fill="#58BF56" fill-opacity="1"/><path d="M1194 4.47268e-07 1170.5 47.0001 1147 4.47268e-07Z" fill="#FFFFFF" fill-rule="evenodd" fill-opacity="1"/><path d="M608 4.47268e-07 584.5 47.0001 561 4.47268e-07Z" fill="#FFFFFF" fill-rule="evenodd" fill-opacity="1"/><path d="M1777 4.47268e-07 1753.5 47.0001 1730 4.47268e-07Z" fill="#FFFFFF" fill-rule="evenodd" fill-opacity="1"/><path d="M1145 4680 1168.5 4633 1192 4680Z" fill="#FFFFFF" fill-rule="evenodd" fill-opacity="1"/><path d="M1730 4677 1753.5 4630 1777 4677Z" fill="#FFFFFF" fill-rule="evenodd" fill-opacity="1"/><path d="M559 4677 582.5 4630 606 4677Z" fill="#FFFFFF" fill-rule="evenodd" fill-opacity="1"/><path d="M4.47268e-07 561 47.0001 584.5 4.47268e-07 608Z" fill="#FFFFFF" fill-rule="evenodd" fill-opacity="1"/><path d="M4.47268e-07 1146 47.0001 1169.5 4.47268e-07 1193Z" fill="#FFFFFF" fill-rule="evenodd" fill-opacity="1"/><path d="M4.47268e-07 1731 47.0001 1754 4.47268e-07 1777Z" fill="#FFFFFF" fill-rule="evenodd" fill-opacity="1"/><path d="M2339 1777 2292 1754 2339 1731Z" fill="#FFFFFF" fill-rule="evenodd" fill-opacity="1"/><path d="M2339 1193 2292 1169.5 2339 1146Z" fill="#FFFFFF" fill-rule="evenodd" fill-opacity="1"/><path d="M2339 610 2292 587 2339 564Z" fill="#FFFFFF" fill-rule="evenodd" fill-opacity="1"/><path d="M4.47268e-07 2900 47.0001 2923.5 4.47268e-07 2947Z" fill="#FFFFFF" fill-rule="evenodd" fill-opacity="1"/><path d="M4.47268e-07 3484 47.0001 3507.5 4.47268e-07 3531Z" fill="#FFFFFF" fill-rule="evenodd" fill-opacity="1"/><path d="M4.47268e-07 4069 47.0001 4092.5 4.47268e-07 4116Z" fill="#FFFFFF" fill-rule="evenodd" fill-opacity="1"/><path d="M2339 4116 2292 4092.5 2339 4069Z" fill="#FFFFFF" fill-rule="evenodd" fill-opacity="1"/><path d="M2339 3531 2292 3507.5 2339 3484Z" fill="#FFFFFF" fill-rule="evenodd" fill-opacity="1"/><path d="M2339 2947 2292 2923.5 2339 2900Z" fill="#FFFFFF" fill-rule="evenodd" fill-opacity="1"/><path d="M1146 3507.5C1146 3494.52 1156.52 3484 1169.5 3484 1182.48 3484 1193 3494.52 1193 3507.5 1193 3520.48 1182.48 3531 1169.5 3531 1156.52 3531 1146 3520.48 1146 3507.5Z" fill="#404040" fill-rule="evenodd" fill-opacity="1"/><path d="M1146 2338.5C1146 2325.52 1156.52 2315 1169.5 2315 1182.48 2315 1193 2325.52 1193 2338.5 1193 2351.48 1182.48 2362 1169.5 2362 1156.52 2362 1146 2351.48 1146 2338.5Z" fill="#FFFFFF" fill-rule="evenodd" fill-opacity="1"/></g></g></svg>