<svg width="1833" height="3666" xmlns="http://www.w3.org/2000/svg" xmlns:xlink="http://www.w3.org/1999/xlink" xml:space="preserve" overflow="hidden"><g><g><rect x="0" y="0" width="1833" height="3666" fill="#58BF56" fill-opacity="1"/><path d="M894 916.5C894 904.074 904.074 894 916.5 894 928.927 894 939 904.074 939 916.5 939 928.927 928.927 939 916.5 939 904.074 939 894 928.927 894 916.5Z" fill="#404040" fill-rule="evenodd" fill-opacity="1"/><path d="M894 1834C894 1821.3 904.074 1811 916.5 1811 928.927 1811 939 1821.3 939 1834 939 1846.7 928.927 1857 916.5 1857 904.074 1857 894 1846.7 894 1834Z" fill="#FFFFFF" fill-rule="evenodd" fill-opacity="1"/><path d="M939 4.5608e-06 916.5 45 894 4.5608e-06Z" fill="#FFFFFF" fill-rule="evenodd" fill-opacity="1"/><path d="M481 4.5608e-06 458 45 435 4.5608e-06Z" fill="#FFFFFF" fill-rule="evenodd" fill-opacity="1"/><path d="M1398 4.5608e-06 1375 45 1352 4.5608e-06Z" fill="#FFFFFF" fill-rule="evenodd" fill-opacity="1"/><path d="M894 3666 916.5 3621 939 3666Z" fill="#FFFFFF" fill-rule="evenodd" fill-opacity="1"/><path d="M1352 3666 1375 3621 1398 3666Z" fill="#FFFFFF" fill-rule="evenodd" fill-opacity="1"/><path d="M435 3666 458 3621 481 3666Z" fill="#FFFFFF" fill-rule="evenodd" fill-opacity="1"/><path d="M1833 917 1788 894 1833 871Z" fill="#FFFFFF" fill-rule="evenodd" fill-opacity="1"/><path d="M1833 458 1788 435.5 1833 413Z" fill="#FFFFFF" fill-rule="evenodd" fill-opacity="1"/><path d="M1833 1375 1788 1352.5 1833 1330Z" fill="#FFFFFF" fill-rule="evenodd" fill-opacity="1"/><path d="M1833 2773 1788 2750 1833 2727Z" fill="#FFFFFF" fill-rule="evenodd" fill-opacity="1"/><path d="M1833 2314 1788 2291 1833 2268Z" fill="#FFFFFF" fill-rule="evenodd" fill-opacity="1"/><path d="M1833 3231 1788 3208.5 1833 3186Z" fill="#FFFFFF" fill-rule="evenodd" fill-opacity="1"/><path d="M0.000183852 2727 45.0002 2750 0.000183852 2773Z" fill="#FFFFFF" fill-rule="evenodd" fill-opacity="1"/><path d="M4.5608e-06 3186 45 3208.5 4.5608e-06 3231Z" fill="#FFFFFF" fill-rule="evenodd" fill-opacity="1"/><path d="M0.000183852 2268 45.0002 2291 0.000183852 2314Z" fill="#FFFFFF" fill-rule="evenodd" fill-opacity="1"/><path d="M0.000183852 871 45.0002 894 0.000183852 917Z" fill="#FFFFFF" fill-rule="evenodd" fill-opacity="1"/><path d="M4.5608e-06 1330 45 1352.5 4.5608e-06 1375Z" fill="#FFFFFF" fill-rule="evenodd" fill-opacity="1"/><path d="M4.5608e-06 413 45 435.5 4.5608e-06 458Z" fill="#FFFFFF" fill-rule="evenodd" fill-opacity="1"/></g></g></svg>